<svg width="16" height="16" viewBox="0 0 16 16" fill="none" xmlns="http://www.w3.org/2000/svg"><path fill-rule="evenodd" clip-rule="evenodd" d="M12 6.5C12 9.53757 9.53757 12 6.5 12 3.46243 12 1 9.53757 1 6.5 1 3.46243 3.46243 1 6.5 1 9.53757 1 12 3.46243 12 6.5zM10.7291 11.4362C9.59234 12.411 8.11495 13 6.5 13 2.91015 13 0 10.0899.0 6.5.0 2.91015 2.91015.0 6.5.0 10.0899.0 13 2.91015 13 6.5 13 8.11495 12.411 9.59234 11.4362 10.7291L15.8536 15.1464 15.1464 15.8536 10.7291 11.4362z" fill="#000" fill-opacity=".8"/></svg>