<svg width="18" height="16" viewBox="0 0 18 16" fill="none" xmlns="http://www.w3.org/2000/svg"><path fill-rule="evenodd" clip-rule="evenodd" d="M3.92701 11.5266 3.6897 11.0341C3.24801 10.1174 3 9.08908 3 8c0-3.86599 3.13401-7 7-7C13.866 1 17 4.13401 17 8 17 11.866 13.866 15 10 15 8.89526 15 7.85296 14.7448 6.92628 14.2911L6.65842 14.1599 6.36249 14.1969 1.94388 14.7492l1.69659-2.7569.28654-.4657zM.671856 14.9082.0 16 1.27203 15.841 6.48652 15.1892C7.5471 15.7085 8.73951 16 10 16 14.4183 16 18 12.4183 18 8 18 3.58172 14.4183.0 10 0 5.58172.0 2 3.58172 2 8 2 9.24258 2.28329 10.419 2.78881 11.4682L.671856 14.9082z" fill="#000" fill-opacity=".8"/></svg>