<svg aria-hidden="true" style="position: absolute; width: 0; height: 0; overflow: hidden;" version="1.1" xmlns="http://www.w3.org/2000/svg" xmlns:xlink="http://www.w3.org/1999/xlink">
<defs>
<symbol id="chats" viewBox="0 0 36 32">
<path d="M7.854 23.053l-0.475-0.985c-0.883-1.833-1.379-3.89-1.379-6.068 0-7.732 6.268-14 14-14s14 6.268 14 14c0 7.732-6.268 14-14 14-2.209 0-4.294-0.51-6.147-1.418l-0.536-0.262-9.429 1.179 3.966-6.445zM1.344 29.816l-1.344 2.184 12.973-1.622c2.121 1.039 4.506 1.622 7.027 1.622 8.837 0 16-7.163 16-16s-7.163-16-16-16c-8.837 0-16 7.163-16 16 0 2.485 0.567 4.838 1.578 6.936l-4.234 6.88z"></path>
</symbol>
<symbol id="profil" viewBox="0 0 23 32">
<path stroke-linejoin="miter" stroke-linecap="butt" stroke-miterlimit="4" stroke-width="1.8824" d="M11.703 17.841c-5.424 0-9.821 4.397-9.821 9.821v2.455h19.642v-2.455c0-5.424-4.397-9.821-9.821-9.821z"></path>
<path stroke-linejoin="miter" stroke-linecap="square" stroke-miterlimit="4" stroke-width="1.8824" d="M19.070 9.248c0 4.068-3.298 7.366-7.366 7.366s-7.366-3.298-7.366-7.366c0-4.068 3.298-7.366 7.366-7.366s7.366 3.298 7.366 7.366z"></path>
</symbol>
<symbol id="home" viewBox="0 0 34 32">
<path d="M1.508 18.102l2.285-2.285v14.17h25.6v-14.17l2.285 2.285 1.508-1.509-16.593-16.593-16.593 16.593 1.508 1.509zM5.927 27.853v-14.17l10.667-10.667 10.667 10.667v14.17h-6.4v-10.666h-8.533v10.666h-6.4zM14.46 19.32h4.267v8.533h-4.267v-8.533z"></path>
</symbol>
<symbol id="seach" viewBox="0 0 32 32">
<path d="M24 13c0-6.075-4.925-11-11-11s-11 4.925-11 11c0 6.075 4.925 11 11 11s11-4.925 11-11zM21.458 22.872c-2.274 1.95-5.228 3.128-8.458 3.128-7.18 0-13-5.82-13-13s5.82-13 13-13c7.18 0 13 5.82 13 13 0 3.23-1.178 6.185-3.128 8.458l8.835 8.835-1.414 1.414-8.835-8.835z"></path>
</symbol>
<symbol id="add" viewBox="0 0 32 32">
<path fill="#fff" style="fill: var(--color1, #fff)" d="M17.143 1.143h-2.286v13.714h-13.714v2.286h13.714v13.714h2.286v-13.714h13.714v-2.286h-13.714v-13.714z"></path>
</symbol>
</defs>
</svg>
